%TF.GenerationSoftware,KiCad,Pcbnew,7.0.7*%
%TF.CreationDate,2023-08-30T11:58:42-04:00*%
%TF.ProjectId,Datta-OpenField-PCB,44617474-612d-44f7-9065-6e4669656c64,rev?*%
%TF.SameCoordinates,Original*%
%TF.FileFunction,Soldermask,Top*%
%TF.FilePolarity,Negative*%
%FSLAX46Y46*%
G04 Gerber Fmt 4.6, Leading zero omitted, Abs format (unit mm)*
G04 Created by KiCad (PCBNEW 7.0.7) date 2023-08-30 11:58:42*
%MOMM*%
%LPD*%
G01*
G04 APERTURE LIST*
G04 Aperture macros list*
%AMRoundRect*
0 Rectangle with rounded corners*
0 $1 Rounding radius*
0 $2 $3 $4 $5 $6 $7 $8 $9 X,Y pos of 4 corners*
0 Add a 4 corners polygon primitive as box body*
4,1,4,$2,$3,$4,$5,$6,$7,$8,$9,$2,$3,0*
0 Add four circle primitives for the rounded corners*
1,1,$1+$1,$2,$3*
1,1,$1+$1,$4,$5*
1,1,$1+$1,$6,$7*
1,1,$1+$1,$8,$9*
0 Add four rect primitives between the rounded corners*
20,1,$1+$1,$2,$3,$4,$5,0*
20,1,$1+$1,$4,$5,$6,$7,0*
20,1,$1+$1,$6,$7,$8,$9,0*
20,1,$1+$1,$8,$9,$2,$3,0*%
G04 Aperture macros list end*
%ADD10C,1.524000*%
%ADD11R,1.700000X1.700000*%
%ADD12O,1.700000X1.700000*%
%ADD13C,4.703200*%
%ADD14C,4.521200*%
%ADD15RoundRect,0.101600X-1.206500X-1.206500X1.206500X-1.206500X1.206500X1.206500X-1.206500X1.206500X0*%
%ADD16C,2.616200*%
%ADD17C,3.200000*%
%ADD18R,1.600000X1.600000*%
%ADD19C,1.600000*%
%ADD20R,3.000000X3.000000*%
%ADD21C,3.000000*%
%ADD22RoundRect,0.150000X0.625000X-0.150000X0.625000X0.150000X-0.625000X0.150000X-0.625000X-0.150000X0*%
%ADD23RoundRect,0.250000X0.650000X-0.350000X0.650000X0.350000X-0.650000X0.350000X-0.650000X-0.350000X0*%
%ADD24O,1.200000X2.200000*%
%ADD25O,2.200000X1.200000*%
%ADD26R,4.000000X4.000000*%
%ADD27C,3.300000*%
%ADD28C,3.500000*%
G04 APERTURE END LIST*
D10*
%TO.C,U9*%
X120650000Y-78740000D03*
X118110000Y-78740000D03*
X115570000Y-78740000D03*
X113030000Y-78740000D03*
X115570000Y-53340000D03*
X118110000Y-53340000D03*
%TD*%
D11*
%TO.C,J2*%
X55880000Y-96520000D03*
D12*
X58420000Y-96520000D03*
X60960000Y-96520000D03*
X63500000Y-96520000D03*
X66040000Y-96520000D03*
X68580000Y-96520000D03*
X71120000Y-96520000D03*
X73660000Y-96520000D03*
X76200000Y-96520000D03*
X78740000Y-96520000D03*
X81280000Y-96520000D03*
X83820000Y-96520000D03*
X86360000Y-96520000D03*
X88900000Y-96520000D03*
X91440000Y-96520000D03*
X93980000Y-96520000D03*
X96520000Y-96520000D03*
X99060000Y-96520000D03*
X101600000Y-96520000D03*
X104140000Y-96520000D03*
X106680000Y-96520000D03*
X109220000Y-96520000D03*
X111760000Y-96520000D03*
X114300000Y-96520000D03*
%TD*%
D10*
%TO.C,U8*%
X133350000Y-78740000D03*
X130810000Y-78740000D03*
X128270000Y-78740000D03*
X125730000Y-78740000D03*
X128270000Y-53340000D03*
X130810000Y-53340000D03*
%TD*%
D11*
%TO.C,J17*%
X154940000Y-149860000D03*
D12*
X157480000Y-149860000D03*
X160020000Y-149860000D03*
%TD*%
D13*
%TO.C,J35*%
X72390000Y-33020000D03*
D14*
X72390000Y-27020520D03*
X67691000Y-30020260D03*
%TD*%
D13*
%TO.C,J33*%
X102870000Y-33020000D03*
D14*
X102870000Y-27020520D03*
X98171000Y-30020260D03*
%TD*%
D13*
%TO.C,J30*%
X148590000Y-33020000D03*
D14*
X148590000Y-27020520D03*
X143891000Y-30020260D03*
%TD*%
D15*
%TO.C,J12*%
X107302300Y-157480000D03*
D16*
X110799880Y-157480000D03*
X114300000Y-157480000D03*
%TD*%
D11*
%TO.C,J13*%
X124460000Y-149860000D03*
D12*
X127000000Y-149860000D03*
X129540000Y-149860000D03*
%TD*%
D10*
%TO.C,U2*%
X209550000Y-78740000D03*
X207010000Y-78740000D03*
X204470000Y-78740000D03*
X201930000Y-78740000D03*
X204470000Y-53340000D03*
X207010000Y-53340000D03*
%TD*%
%TO.C,U11*%
X95250000Y-78740000D03*
X92710000Y-78740000D03*
X90170000Y-78740000D03*
X87630000Y-78740000D03*
X90170000Y-53340000D03*
X92710000Y-53340000D03*
%TD*%
D11*
%TO.C,J11*%
X109220000Y-149860000D03*
D12*
X111760000Y-149860000D03*
X114300000Y-149860000D03*
%TD*%
D13*
%TO.C,J31*%
X133350000Y-33020000D03*
D14*
X133350000Y-27020520D03*
X128651000Y-30020260D03*
%TD*%
D10*
%TO.C,U6*%
X158750000Y-78740000D03*
X156210000Y-78740000D03*
X153670000Y-78740000D03*
X151130000Y-78740000D03*
X153670000Y-53340000D03*
X156210000Y-53340000D03*
%TD*%
D17*
%TO.C,H3*%
X190500000Y-142240000D03*
%TD*%
D13*
%TO.C,J22*%
X43180000Y-80010000D03*
D14*
X37180520Y-80010000D03*
X40180260Y-84709000D03*
%TD*%
D11*
%TO.C,J9*%
X93980000Y-149860000D03*
D12*
X96520000Y-149860000D03*
X99060000Y-149860000D03*
%TD*%
D13*
%TO.C,J23*%
X43180000Y-95250000D03*
D14*
X37180520Y-95250000D03*
X40180260Y-99949000D03*
%TD*%
D18*
%TO.C,U1*%
X55880000Y-119380000D03*
D19*
X58420000Y-119380000D03*
X60960000Y-119380000D03*
X63500000Y-119380000D03*
X66040000Y-119380000D03*
X68580000Y-119380000D03*
X71120000Y-119380000D03*
X73660000Y-119380000D03*
X76200000Y-119380000D03*
X78740000Y-119380000D03*
X81280000Y-119380000D03*
X83820000Y-119380000D03*
X86360000Y-119380000D03*
X88900000Y-119380000D03*
X91440000Y-119380000D03*
X93980000Y-119380000D03*
X96520000Y-119380000D03*
X99060000Y-119380000D03*
X101600000Y-119380000D03*
X104140000Y-119380000D03*
X106680000Y-119380000D03*
X109220000Y-119380000D03*
X111760000Y-119380000D03*
X114300000Y-119380000D03*
X114300000Y-104140000D03*
X111760000Y-104140000D03*
X109220000Y-104140000D03*
X106680000Y-104140000D03*
X104140000Y-104140000D03*
X101600000Y-104140000D03*
X99060000Y-104140000D03*
X96520000Y-104140000D03*
X93980000Y-104140000D03*
X91440000Y-104140000D03*
X88900000Y-104140000D03*
X86360000Y-104140000D03*
X83820000Y-104140000D03*
X81280000Y-104140000D03*
X78740000Y-104140000D03*
X76200000Y-104140000D03*
X73660000Y-104140000D03*
X71120000Y-104140000D03*
X68580000Y-104140000D03*
X66040000Y-104140000D03*
X63500000Y-104140000D03*
X60960000Y-104140000D03*
X58420000Y-104140000D03*
X55880000Y-104140000D03*
%TD*%
D13*
%TO.C,J26*%
X209550000Y-33020000D03*
D14*
X209550000Y-27020520D03*
X204851000Y-30020260D03*
%TD*%
D15*
%TO.C,J10*%
X92062300Y-157480000D03*
D16*
X95559880Y-157480000D03*
X99060000Y-157480000D03*
%TD*%
D15*
%TO.C,J8*%
X76822300Y-157480000D03*
D16*
X80319880Y-157480000D03*
X83820000Y-157480000D03*
%TD*%
D10*
%TO.C,U12*%
X82550000Y-78740000D03*
X80010000Y-78740000D03*
X77470000Y-78740000D03*
X74930000Y-78740000D03*
X77470000Y-53340000D03*
X80010000Y-53340000D03*
%TD*%
D11*
%TO.C,J5*%
X63500000Y-149860000D03*
D12*
X66040000Y-149860000D03*
X68580000Y-149860000D03*
%TD*%
D13*
%TO.C,J20*%
X43180000Y-49530000D03*
D14*
X37180520Y-49530000D03*
X40180260Y-54229000D03*
%TD*%
D20*
%TO.C,J25*%
X210820000Y-106680000D03*
D21*
X210820000Y-101600000D03*
%TD*%
D13*
%TO.C,J36*%
X57150000Y-33020000D03*
D14*
X57150000Y-27020520D03*
X52451000Y-30020260D03*
%TD*%
D13*
%TO.C,J29*%
X163830000Y-33020000D03*
D14*
X163830000Y-27020520D03*
X159131000Y-30020260D03*
%TD*%
D15*
%TO.C,J6*%
X61582300Y-157480000D03*
D16*
X65079880Y-157480000D03*
X68580000Y-157480000D03*
%TD*%
D17*
%TO.C,H1*%
X50800000Y-142240000D03*
%TD*%
D15*
%TO.C,J14*%
X122542300Y-157480000D03*
D16*
X126039880Y-157480000D03*
X129540000Y-157480000D03*
%TD*%
D15*
%TO.C,J18*%
X153022300Y-157480000D03*
D16*
X156519880Y-157480000D03*
X160020000Y-157480000D03*
%TD*%
D13*
%TO.C,J27*%
X194310000Y-33020000D03*
D14*
X194310000Y-27020520D03*
X189611000Y-30020260D03*
%TD*%
D22*
%TO.C,J39*%
X208280000Y-142700000D03*
X208280000Y-141700000D03*
X208280000Y-140700000D03*
X208280000Y-139700000D03*
D23*
X212155000Y-144000000D03*
X212155000Y-138400000D03*
%TD*%
D17*
%TO.C,H2*%
X50800000Y-40640000D03*
%TD*%
D15*
%TO.C,J16*%
X137782300Y-157480000D03*
D16*
X141279880Y-157480000D03*
X144780000Y-157480000D03*
%TD*%
D15*
%TO.C,J4*%
X46342300Y-157480000D03*
D16*
X49839880Y-157480000D03*
X53340000Y-157480000D03*
%TD*%
D13*
%TO.C,J21*%
X43180000Y-64770000D03*
D14*
X37180520Y-64770000D03*
X40180260Y-69469000D03*
%TD*%
D10*
%TO.C,U7*%
X146050000Y-78740000D03*
X143510000Y-78740000D03*
X140970000Y-78740000D03*
X138430000Y-78740000D03*
X140970000Y-53340000D03*
X143510000Y-53340000D03*
%TD*%
D13*
%TO.C,J34*%
X87630000Y-33020000D03*
D14*
X87630000Y-27020520D03*
X82931000Y-30020260D03*
%TD*%
D11*
%TO.C,J38*%
X200660000Y-144780000D03*
D12*
X200660000Y-142240000D03*
X200660000Y-139700000D03*
X200660000Y-137160000D03*
%TD*%
D11*
%TO.C,J15*%
X139700000Y-149860000D03*
D12*
X142240000Y-149860000D03*
X144780000Y-149860000D03*
%TD*%
D24*
%TO.C,J19*%
X177866809Y-155599120D03*
X180366809Y-155599120D03*
D25*
X182866809Y-160599120D03*
D24*
X187866809Y-155599120D03*
X185366809Y-155599120D03*
%TD*%
D10*
%TO.C,U3*%
X196850000Y-78740000D03*
X194310000Y-78740000D03*
X191770000Y-78740000D03*
X189230000Y-78740000D03*
X191770000Y-53340000D03*
X194310000Y-53340000D03*
%TD*%
D11*
%TO.C,J7*%
X78740000Y-149860000D03*
D12*
X81280000Y-149860000D03*
X83820000Y-149860000D03*
%TD*%
D10*
%TO.C,U10*%
X107950000Y-78740000D03*
X105410000Y-78740000D03*
X102870000Y-78740000D03*
X100330000Y-78740000D03*
X102870000Y-53340000D03*
X105410000Y-53340000D03*
%TD*%
D11*
%TO.C,J1*%
X55880000Y-127000000D03*
D12*
X58420000Y-127000000D03*
X60960000Y-127000000D03*
X63500000Y-127000000D03*
X66040000Y-127000000D03*
X68580000Y-127000000D03*
X71120000Y-127000000D03*
X73660000Y-127000000D03*
X76200000Y-127000000D03*
X78740000Y-127000000D03*
X81280000Y-127000000D03*
X83820000Y-127000000D03*
X86360000Y-127000000D03*
X88900000Y-127000000D03*
X91440000Y-127000000D03*
X93980000Y-127000000D03*
X96520000Y-127000000D03*
X99060000Y-127000000D03*
X101600000Y-127000000D03*
X104140000Y-127000000D03*
X106680000Y-127000000D03*
X109220000Y-127000000D03*
X111760000Y-127000000D03*
X114300000Y-127000000D03*
%TD*%
D13*
%TO.C,J37*%
X41910000Y-33020000D03*
D14*
X41910000Y-27020520D03*
X37211000Y-30020260D03*
%TD*%
D10*
%TO.C,U13*%
X69850000Y-78740000D03*
X67310000Y-78740000D03*
X64770000Y-78740000D03*
X62230000Y-78740000D03*
X64770000Y-53340000D03*
X67310000Y-53340000D03*
%TD*%
D17*
%TO.C,H4*%
X190500000Y-40640000D03*
%TD*%
D10*
%TO.C,U5*%
X171450000Y-78740000D03*
X168910000Y-78740000D03*
X166370000Y-78740000D03*
X163830000Y-78740000D03*
X166370000Y-53340000D03*
X168910000Y-53340000D03*
%TD*%
D11*
%TO.C,J3*%
X48260000Y-149860000D03*
D12*
X50800000Y-149860000D03*
X53340000Y-149860000D03*
%TD*%
D13*
%TO.C,J28*%
X179070000Y-33020000D03*
D14*
X179070000Y-27020520D03*
X174371000Y-30020260D03*
%TD*%
D13*
%TO.C,J32*%
X118110000Y-33020000D03*
D14*
X118110000Y-27020520D03*
X113411000Y-30020260D03*
%TD*%
D19*
%TO.C,J24*%
X214740000Y-121920000D03*
D26*
X205740000Y-121920000D03*
D27*
X211740000Y-121920000D03*
D28*
X212740000Y-126420000D03*
X212740000Y-117420000D03*
%TD*%
D10*
%TO.C,U4*%
X184150000Y-78740000D03*
X181610000Y-78740000D03*
X179070000Y-78740000D03*
X176530000Y-78740000D03*
X179070000Y-53340000D03*
X181610000Y-53340000D03*
%TD*%
M02*
