M48
; DRILL file {KiCad 7.0.7} date 2023 August 30, Wednesday 11:58:58
; FORMAT={-:-/ absolute / inch / decimal}
; #@! TF.CreationDate,2023-08-30T11:58:58-04:00
; #@! TF.GenerationSoftware,Kicad,Pcbnew,7.0.7
; #@! TF.FileFunction,Plated,1,2,PTH
FMAT,2
INCH
; #@! TA.AperFunction,Plated,PTH,ViaDrill
T1C0.0157
; #@! TA.AperFunction,Plated,PTH,ComponentDrill
T2C0.0157
; #@! TA.AperFunction,Plated,PTH,ComponentDrill
T3C0.0300
; #@! TA.AperFunction,Plated,PTH,ComponentDrill
T4C0.0394
; #@! TA.AperFunction,Plated,PTH,ComponentDrill
T5C0.0433
; #@! TA.AperFunction,Plated,PTH,ComponentDrill
T6C0.0472
; #@! TA.AperFunction,Plated,PTH,ComponentDrill
T7C0.0598
; #@! TA.AperFunction,Plated,PTH,ComponentDrill
T8C0.0906
; #@! TA.AperFunction,Plated,PTH,ComponentDrill
T9C0.0984
; #@! TA.AperFunction,Plated,PTH,ComponentDrill
T10C0.1180
; #@! TA.AperFunction,Plated,PTH,ComponentDrill
T11C0.1181
; #@! TA.AperFunction,Plated,PTH,ComponentDrill
T12C0.1378
%
G90
G05
T1
X4.2Y-5.3
T3
X2.45Y-3.1
X2.55Y-2.1
X2.55Y-3.1
X2.65Y-2.1
X2.65Y-3.1
X2.75Y-3.1
X2.95Y-3.1
X3.05Y-2.1
X3.05Y-3.1
X3.15Y-2.1
X3.15Y-3.1
X3.25Y-3.1
X3.45Y-3.1
X3.55Y-2.1
X3.55Y-3.1
X3.65Y-2.1
X3.65Y-3.1
X3.75Y-3.1
X3.95Y-3.1
X4.05Y-2.1
X4.05Y-3.1
X4.15Y-2.1
X4.15Y-3.1
X4.25Y-3.1
X4.45Y-3.1
X4.55Y-2.1
X4.55Y-3.1
X4.65Y-2.1
X4.65Y-3.1
X4.75Y-3.1
X4.95Y-3.1
X5.05Y-2.1
X5.05Y-3.1
X5.15Y-2.1
X5.15Y-3.1
X5.25Y-3.1
X5.45Y-3.1
X5.55Y-2.1
X5.55Y-3.1
X5.65Y-2.1
X5.65Y-3.1
X5.75Y-3.1
X5.95Y-3.1
X6.05Y-2.1
X6.05Y-3.1
X6.15Y-2.1
X6.15Y-3.1
X6.25Y-3.1
X6.45Y-3.1
X6.55Y-2.1
X6.55Y-3.1
X6.65Y-2.1
X6.65Y-3.1
X6.75Y-3.1
X6.95Y-3.1
X7.05Y-2.1
X7.05Y-3.1
X7.15Y-2.1
X7.15Y-3.1
X7.25Y-3.1
X7.45Y-3.1
X7.55Y-2.1
X7.55Y-3.1
X7.65Y-2.1
X7.65Y-3.1
X7.75Y-3.1
X7.95Y-3.1
X8.05Y-2.1
X8.05Y-3.1
X8.15Y-2.1
X8.15Y-3.1
X8.25Y-3.1
T4
X1.9Y-5.9
X2.0Y-5.9
X2.1Y-5.9
X2.2Y-3.8
X2.2Y-5.0
X2.3Y-3.8
X2.3Y-5.0
X2.4Y-3.8
X2.4Y-5.0
X2.5Y-3.8
X2.5Y-5.0
X2.5Y-5.9
X2.6Y-3.8
X2.6Y-5.0
X2.6Y-5.9
X2.7Y-3.8
X2.7Y-5.0
X2.7Y-5.9
X2.8Y-3.8
X2.8Y-5.0
X2.9Y-3.8
X2.9Y-5.0
X3.0Y-3.8
X3.0Y-5.0
X3.1Y-3.8
X3.1Y-5.0
X3.1Y-5.9
X3.2Y-3.8
X3.2Y-5.0
X3.2Y-5.9
X3.3Y-3.8
X3.3Y-5.0
X3.3Y-5.9
X3.4Y-3.8
X3.4Y-5.0
X3.5Y-3.8
X3.5Y-5.0
X3.6Y-3.8
X3.6Y-5.0
X3.7Y-3.8
X3.7Y-5.0
X3.7Y-5.9
X3.8Y-3.8
X3.8Y-5.0
X3.8Y-5.9
X3.9Y-3.8
X3.9Y-5.0
X3.9Y-5.9
X4.0Y-3.8
X4.0Y-5.0
X4.1Y-3.8
X4.1Y-5.0
X4.2Y-3.8
X4.2Y-5.0
X4.3Y-3.8
X4.3Y-5.0
X4.3Y-5.9
X4.4Y-3.8
X4.4Y-5.0
X4.4Y-5.9
X4.5Y-3.8
X4.5Y-5.0
X4.5Y-5.9
X4.9Y-5.9
X5.0Y-5.9
X5.1Y-5.9
X5.5Y-5.9
X5.6Y-5.9
X5.7Y-5.9
X6.1Y-5.9
X6.2Y-5.9
X6.3Y-5.9
X7.9Y-5.4
X7.9Y-5.5
X7.9Y-5.6
X7.9Y-5.7
T5
X2.2Y-4.1
X2.2Y-4.7
X2.3Y-4.1
X2.3Y-4.7
X2.4Y-4.1
X2.4Y-4.7
X2.5Y-4.1
X2.5Y-4.7
X2.6Y-4.1
X2.6Y-4.7
X2.7Y-4.1
X2.7Y-4.7
X2.8Y-4.1
X2.8Y-4.7
X2.9Y-4.1
X2.9Y-4.7
X3.0Y-4.1
X3.0Y-4.7
X3.1Y-4.1
X3.1Y-4.7
X3.2Y-4.1
X3.2Y-4.7
X3.3Y-4.1
X3.3Y-4.7
X3.4Y-4.1
X3.4Y-4.7
X3.5Y-4.1
X3.5Y-4.7
X3.6Y-4.1
X3.6Y-4.7
X3.7Y-4.1
X3.7Y-4.7
X3.8Y-4.1
X3.8Y-4.7
X3.9Y-4.1
X3.9Y-4.7
X4.0Y-4.1
X4.0Y-4.7
X4.1Y-4.1
X4.1Y-4.7
X4.2Y-4.1
X4.2Y-4.7
X4.3Y-4.1
X4.3Y-4.7
X4.4Y-4.1
X4.4Y-4.7
X4.5Y-4.1
X4.5Y-4.7
T6
X1.8245Y-6.2
X1.9622Y-6.2
X2.1Y-6.2
X2.4245Y-6.2
X2.5622Y-6.2
X2.7Y-6.2
X3.0245Y-6.2
X3.1622Y-6.2
X3.3Y-6.2
X3.6245Y-6.2
X3.7622Y-6.2
X3.9Y-6.2
X4.2245Y-6.2
X4.3622Y-6.2
X4.5Y-6.2
X4.8245Y-6.2
X4.9622Y-6.2
X5.1Y-6.2
X5.4245Y-6.2
X5.5622Y-6.2
X5.7Y-6.2
X6.0245Y-6.2
X6.1622Y-6.2
X6.3Y-6.2
T7
X8.3Y-4.0
X8.3Y-4.2
T8
X8.3362Y-4.8
T9
X8.3756Y-4.6228
X8.3756Y-4.9772
T10
X1.4638Y-1.95
X1.4638Y-2.55
X1.4638Y-3.15
X1.4638Y-3.75
X1.465Y-1.1819
X1.5819Y-2.135
X1.5819Y-2.735
X1.5819Y-3.335
X1.5819Y-3.935
X1.65Y-1.0638
X2.065Y-1.1819
X2.25Y-1.0638
X2.665Y-1.1819
X2.85Y-1.0638
X3.265Y-1.1819
X3.45Y-1.0638
X3.865Y-1.1819
X4.05Y-1.0638
X4.465Y-1.1819
X4.65Y-1.0638
X5.065Y-1.1819
X5.25Y-1.0638
X5.665Y-1.1819
X5.85Y-1.0638
X6.265Y-1.1819
X6.45Y-1.0638
X6.865Y-1.1819
X7.05Y-1.0638
X7.465Y-1.1819
X7.65Y-1.0638
X8.065Y-1.1819
X8.25Y-1.0638
T11
X8.1Y-4.8
T12
X1.65Y-1.3
X1.7Y-1.95
X1.7Y-2.55
X1.7Y-3.15
X1.7Y-3.75
X2.25Y-1.3
X2.85Y-1.3
X3.45Y-1.3
X4.05Y-1.3
X4.65Y-1.3
X5.25Y-1.3
X5.85Y-1.3
X6.45Y-1.3
X7.05Y-1.3
X7.65Y-1.3
X8.25Y-1.3
T2
G00X7.0026Y-6.1063
M15
G01X7.0026Y-6.1456
M16
G05
G00X7.1011Y-6.1063
M15
G01X7.1011Y-6.1456
M16
G05
G00X7.1798Y-6.3228
M15
G01X7.2192Y-6.3228
M16
G05
G00X7.2979Y-6.1456
M15
G01X7.2979Y-6.1063
M16
G05
G00X7.3963Y-6.1456
M15
G01X7.3963Y-6.1063
M16
G05
T0
M30
