%TF.GenerationSoftware,KiCad,Pcbnew,7.0.2-0*%
%TF.CreationDate,2023-06-26T15:28:45-04:00*%
%TF.ProjectId,6-Camera-PCB,362d4361-6d65-4726-912d-5043422e6b69,rev?*%
%TF.SameCoordinates,Original*%
%TF.FileFunction,Soldermask,Top*%
%TF.FilePolarity,Negative*%
%FSLAX46Y46*%
G04 Gerber Fmt 4.6, Leading zero omitted, Abs format (unit mm)*
G04 Created by KiCad (PCBNEW 7.0.2-0) date 2023-06-26 15:28:45*
%MOMM*%
%LPD*%
G01*
G04 APERTURE LIST*
G04 Aperture macros list*
%AMRoundRect*
0 Rectangle with rounded corners*
0 $1 Rounding radius*
0 $2 $3 $4 $5 $6 $7 $8 $9 X,Y pos of 4 corners*
0 Add a 4 corners polygon primitive as box body*
4,1,4,$2,$3,$4,$5,$6,$7,$8,$9,$2,$3,0*
0 Add four circle primitives for the rounded corners*
1,1,$1+$1,$2,$3*
1,1,$1+$1,$4,$5*
1,1,$1+$1,$6,$7*
1,1,$1+$1,$8,$9*
0 Add four rect primitives between the rounded corners*
20,1,$1+$1,$2,$3,$4,$5,0*
20,1,$1+$1,$4,$5,$6,$7,0*
20,1,$1+$1,$6,$7,$8,$9,0*
20,1,$1+$1,$8,$9,$2,$3,0*%
G04 Aperture macros list end*
%ADD10C,3.200000*%
%ADD11C,4.703200*%
%ADD12C,4.521200*%
%ADD13RoundRect,0.101600X-1.016000X-1.016000X1.016000X-1.016000X1.016000X1.016000X-1.016000X1.016000X0*%
%ADD14C,2.235200*%
%ADD15R,1.700000X1.700000*%
%ADD16O,1.700000X1.700000*%
%ADD17C,1.524000*%
%ADD18C,1.600000*%
%ADD19R,1.600000X1.600000*%
%ADD20R,1.300000X1.300000*%
%ADD21C,1.300000*%
%ADD22R,3.000000X3.000000*%
%ADD23C,3.000000*%
%ADD24O,2.200000X1.200000*%
%ADD25O,1.200000X2.200000*%
%ADD26C,3.500000*%
%ADD27C,3.300000*%
%ADD28R,4.000000X4.000000*%
G04 APERTURE END LIST*
D10*
%TO.C,H3*%
X228600000Y-50800000D03*
%TD*%
%TO.C,H4*%
X228600000Y-127000000D03*
%TD*%
%TO.C,H2*%
X63500000Y-50800000D03*
%TD*%
%TO.C,H1*%
X63500000Y-127000000D03*
%TD*%
D11*
%TO.C,J18*%
X96520000Y-33710880D03*
D12*
X96520000Y-27711400D03*
X91821000Y-30711140D03*
%TD*%
D11*
%TO.C,J17*%
X111760000Y-33710880D03*
D12*
X111760000Y-27711400D03*
X107061000Y-30711140D03*
%TD*%
D11*
%TO.C,J16*%
X127000000Y-33510880D03*
D12*
X127000000Y-27511400D03*
X122301000Y-30511140D03*
%TD*%
D11*
%TO.C,J11*%
X203200000Y-33510880D03*
D12*
X203200000Y-27511400D03*
X198501000Y-30511140D03*
%TD*%
%TO.C,J22*%
X241068860Y-112141000D03*
X244068600Y-116840000D03*
D11*
X238069120Y-116840000D03*
%TD*%
D12*
%TO.C,J23*%
X241068860Y-96901000D03*
X244068600Y-101600000D03*
D11*
X238069120Y-101600000D03*
%TD*%
%TO.C,J14*%
X157480000Y-33510880D03*
D12*
X157480000Y-27511400D03*
X152781000Y-30511140D03*
%TD*%
%TO.C,J21*%
X241068860Y-127381000D03*
X244068600Y-132080000D03*
D11*
X238069120Y-132080000D03*
%TD*%
D12*
%TO.C,J20*%
X241068860Y-142621000D03*
X244068600Y-147320000D03*
D11*
X238069120Y-147320000D03*
%TD*%
%TO.C,J10*%
X218440000Y-33510880D03*
D12*
X218440000Y-27511400D03*
X213741000Y-30511140D03*
%TD*%
D11*
%TO.C,J13*%
X172720000Y-33510880D03*
D12*
X172720000Y-27511400D03*
X168021000Y-30511140D03*
%TD*%
D11*
%TO.C,J12*%
X187960000Y-33510880D03*
D12*
X187960000Y-27511400D03*
X183261000Y-30511140D03*
%TD*%
D11*
%TO.C,J15*%
X142240000Y-33510880D03*
D12*
X142240000Y-27511400D03*
X137541000Y-30511140D03*
%TD*%
%TO.C,J26*%
X241068860Y-51181000D03*
X244068600Y-55880000D03*
D11*
X238069120Y-55880000D03*
%TD*%
D12*
%TO.C,J24*%
X241068860Y-81661000D03*
X244068600Y-86360000D03*
D11*
X238069120Y-86360000D03*
%TD*%
D12*
%TO.C,J25*%
X241068860Y-66421000D03*
X244068600Y-71120000D03*
D11*
X238069120Y-71120000D03*
%TD*%
D12*
%TO.C,J27*%
X241068860Y-35941000D03*
X244068600Y-40640000D03*
D11*
X238069120Y-40640000D03*
%TD*%
%TO.C,J19*%
X81280000Y-33710880D03*
D12*
X81280000Y-27711400D03*
X76581000Y-30711140D03*
%TD*%
D13*
%TO.C,J3*%
X48882300Y-154940000D03*
D14*
X52379880Y-154940000D03*
X55880000Y-154940000D03*
X59380120Y-154940000D03*
X62880240Y-154940000D03*
%TD*%
D15*
%TO.C,J28*%
X45720000Y-68580000D03*
D16*
X48260000Y-68580000D03*
X50800000Y-68580000D03*
X53340000Y-68580000D03*
X55880000Y-68580000D03*
X58420000Y-68580000D03*
X60960000Y-68580000D03*
X63500000Y-68580000D03*
X66040000Y-68580000D03*
X68580000Y-68580000D03*
X71120000Y-68580000D03*
X73660000Y-68580000D03*
X76200000Y-68580000D03*
X78740000Y-68580000D03*
X81280000Y-68580000D03*
X83820000Y-68580000D03*
X86360000Y-68580000D03*
X88900000Y-68580000D03*
X91440000Y-68580000D03*
X93980000Y-68580000D03*
X96520000Y-68580000D03*
X99060000Y-68580000D03*
X101600000Y-68580000D03*
X104140000Y-68580000D03*
%TD*%
D17*
%TO.C,U6*%
X185420000Y-88900000D03*
X185420000Y-86360000D03*
X185420000Y-83820000D03*
X185420000Y-81280000D03*
X210820000Y-83820000D03*
X210820000Y-86360000D03*
%TD*%
D13*
%TO.C,J4*%
X74282300Y-154940000D03*
D14*
X77779880Y-154940000D03*
X81280000Y-154940000D03*
X84780120Y-154940000D03*
X88280240Y-154940000D03*
%TD*%
D17*
%TO.C,U9*%
X185420000Y-50800000D03*
X185420000Y-48260000D03*
X185420000Y-45720000D03*
X185420000Y-43180000D03*
X210820000Y-45720000D03*
X210820000Y-48260000D03*
%TD*%
%TO.C,U8*%
X185420000Y-63500000D03*
X185420000Y-60960000D03*
X185420000Y-58420000D03*
X185420000Y-55880000D03*
X210820000Y-58420000D03*
X210820000Y-60960000D03*
%TD*%
D16*
%TO.C,J30*%
X137160000Y-147320000D03*
X134620000Y-147320000D03*
X132080000Y-147320000D03*
X129540000Y-147320000D03*
D15*
X127000000Y-147320000D03*
%TD*%
D16*
%TO.C,J31*%
X60960000Y-147320000D03*
X58420000Y-147320000D03*
X55880000Y-147320000D03*
X53340000Y-147320000D03*
D15*
X50800000Y-147320000D03*
%TD*%
D18*
%TO.C,U1*%
X48260000Y-78740000D03*
X62179200Y-88389200D03*
X59639200Y-88389200D03*
X57099200Y-88389200D03*
X54559200Y-88389200D03*
D19*
X52019200Y-88389200D03*
D18*
X45720000Y-76200000D03*
X48260000Y-76200000D03*
X50800000Y-76200000D03*
X53340000Y-76200000D03*
X55880000Y-76200000D03*
X58420000Y-76200000D03*
X60960000Y-76200000D03*
X63500000Y-76200000D03*
X66040000Y-76200000D03*
X68580000Y-76200000D03*
X71120000Y-76200000D03*
X73660000Y-76200000D03*
X76200000Y-76200000D03*
X78740000Y-76200000D03*
D19*
X45720000Y-91440000D03*
D18*
X48260000Y-91440000D03*
X50800000Y-91440000D03*
X53340000Y-91440000D03*
X55880000Y-91440000D03*
X58420000Y-91440000D03*
X60960000Y-91440000D03*
X63500000Y-91440000D03*
X66040000Y-91440000D03*
X68580000Y-91440000D03*
X71120000Y-91440000D03*
X73660000Y-91440000D03*
X76200000Y-91440000D03*
X81280000Y-76200000D03*
X83820000Y-76200000D03*
X86360000Y-76200000D03*
X88900000Y-76200000D03*
X91440000Y-76200000D03*
X93980000Y-76200000D03*
X96520000Y-76200000D03*
X99060000Y-76200000D03*
X101600000Y-76200000D03*
X104140000Y-76200000D03*
X104140000Y-91440000D03*
X101600000Y-91440000D03*
X99060000Y-91440000D03*
X96520000Y-91440000D03*
X78740000Y-91440000D03*
X81280000Y-91440000D03*
X83820000Y-91440000D03*
X93980000Y-91440000D03*
X91440000Y-91440000D03*
X88900000Y-91440000D03*
X86360000Y-91440000D03*
D20*
X58690000Y-78638400D03*
D21*
X60690000Y-78638400D03*
X58690000Y-80638400D03*
X60690000Y-80638400D03*
X60690000Y-82638400D03*
X58690000Y-82638400D03*
D18*
X91440000Y-88900000D03*
X91440000Y-86360000D03*
X91440000Y-83820000D03*
X91440000Y-81280000D03*
X91440000Y-78740000D03*
D21*
X46450000Y-85090000D03*
X46450000Y-82550000D03*
%TD*%
D17*
%TO.C,U7*%
X185420000Y-76200000D03*
X185420000Y-73660000D03*
X185420000Y-71120000D03*
X185420000Y-68580000D03*
X210820000Y-71120000D03*
X210820000Y-73660000D03*
%TD*%
%TO.C,U3*%
X185420000Y-127000000D03*
X185420000Y-124460000D03*
X185420000Y-121920000D03*
X185420000Y-119380000D03*
X210820000Y-121920000D03*
X210820000Y-124460000D03*
%TD*%
%TO.C,U5*%
X185420000Y-101600000D03*
X185420000Y-99060000D03*
X185420000Y-96520000D03*
X185420000Y-93980000D03*
X210820000Y-96520000D03*
X210820000Y-99060000D03*
%TD*%
D22*
%TO.C,J9*%
X45720000Y-48260000D03*
D23*
X45720000Y-53340000D03*
%TD*%
D17*
%TO.C,U4*%
X185420000Y-114300000D03*
X185420000Y-111760000D03*
X185420000Y-109220000D03*
X185420000Y-106680000D03*
X210820000Y-109220000D03*
X210820000Y-111760000D03*
%TD*%
D16*
%TO.C,J34*%
X162560000Y-147320000D03*
X160020000Y-147320000D03*
X157480000Y-147320000D03*
X154940000Y-147320000D03*
D15*
X152400000Y-147320000D03*
%TD*%
D13*
%TO.C,J6*%
X99682300Y-154940000D03*
D14*
X103179880Y-154940000D03*
X106680000Y-154940000D03*
X110180120Y-154940000D03*
X113680240Y-154940000D03*
%TD*%
D16*
%TO.C,J32*%
X86360000Y-147320000D03*
X83820000Y-147320000D03*
X81280000Y-147320000D03*
X78740000Y-147320000D03*
D15*
X76200000Y-147320000D03*
%TD*%
D13*
%TO.C,J2*%
X125082300Y-154940000D03*
D14*
X128579880Y-154940000D03*
X132080000Y-154940000D03*
X135580120Y-154940000D03*
X139080240Y-154940000D03*
%TD*%
D24*
%TO.C,J1*%
X47579794Y-135469853D03*
X47579794Y-137969853D03*
D25*
X42579794Y-132969853D03*
D24*
X47579794Y-130469853D03*
X47579794Y-127969853D03*
%TD*%
D16*
%TO.C,J33*%
X111760000Y-147320000D03*
X109220000Y-147320000D03*
X106680000Y-147320000D03*
X104140000Y-147320000D03*
D15*
X101600000Y-147320000D03*
%TD*%
%TO.C,J29*%
X45720000Y-99060000D03*
D16*
X48260000Y-99060000D03*
X50800000Y-99060000D03*
X53340000Y-99060000D03*
X55880000Y-99060000D03*
X58420000Y-99060000D03*
X60960000Y-99060000D03*
X63500000Y-99060000D03*
X66040000Y-99060000D03*
X68580000Y-99060000D03*
X71120000Y-99060000D03*
X73660000Y-99060000D03*
X76200000Y-99060000D03*
X78740000Y-99060000D03*
X81280000Y-99060000D03*
X83820000Y-99060000D03*
X86360000Y-99060000D03*
X88900000Y-99060000D03*
X91440000Y-99060000D03*
X93980000Y-99060000D03*
X96520000Y-99060000D03*
X99060000Y-99060000D03*
X101600000Y-99060000D03*
X104140000Y-99060000D03*
%TD*%
D13*
%TO.C,J5*%
X150482300Y-154940000D03*
D14*
X153979880Y-154940000D03*
X157480000Y-154940000D03*
X160980120Y-154940000D03*
X164480240Y-154940000D03*
%TD*%
D17*
%TO.C,U2*%
X185420000Y-139700000D03*
X185420000Y-137160000D03*
X185420000Y-134620000D03*
X185420000Y-132080000D03*
X210820000Y-134620000D03*
X210820000Y-137160000D03*
%TD*%
D26*
%TO.C,J8*%
X43800000Y-28520000D03*
X43800000Y-37520000D03*
D27*
X44800000Y-33020000D03*
D28*
X50800000Y-33020000D03*
D18*
X41800000Y-33020000D03*
%TD*%
D15*
%TO.C,J35*%
X177800000Y-147320000D03*
D16*
X180340000Y-147320000D03*
X182880000Y-147320000D03*
X185420000Y-147320000D03*
X187960000Y-147320000D03*
%TD*%
D13*
%TO.C,J7*%
X175882300Y-154940000D03*
D14*
X179379880Y-154940000D03*
X182880000Y-154940000D03*
X186380120Y-154940000D03*
X189880240Y-154940000D03*
%TD*%
M02*
