M48
; DRILL file {KiCad 7.0.2-0} date 2023 June 26, Monday 15:28:50
; FORMAT={-:-/ absolute / inch / decimal}
; #@! TF.CreationDate,2023-06-26T15:28:50-04:00
; #@! TF.GenerationSoftware,Kicad,Pcbnew,7.0.2-0
; #@! TF.FileFunction,Plated,1,2,PTH
FMAT,2
INCH
; #@! TA.AperFunction,Plated,PTH,ComponentDrill
T1C0.0157
; #@! TA.AperFunction,Plated,PTH,ComponentDrill
T2C0.0300
; #@! TA.AperFunction,Plated,PTH,ComponentDrill
T3C0.0315
; #@! TA.AperFunction,Plated,PTH,ComponentDrill
T4C0.0394
; #@! TA.AperFunction,Plated,PTH,ComponentDrill
T5C0.0433
; #@! TA.AperFunction,Plated,PTH,ComponentDrill
T6C0.0472
; #@! TA.AperFunction,Plated,PTH,ComponentDrill
T7C0.0598
; #@! TA.AperFunction,Plated,PTH,ComponentDrill
T8C0.0906
; #@! TA.AperFunction,Plated,PTH,ComponentDrill
T9C0.0984
; #@! TA.AperFunction,Plated,PTH,ComponentDrill
T10C0.1180
; #@! TA.AperFunction,Plated,PTH,ComponentDrill
T11C0.1181
; #@! TA.AperFunction,Plated,PTH,ComponentDrill
T12C0.1378
%
G90
G05
T2
X7.3Y-1.7
X7.3Y-1.8
X7.3Y-1.9
X7.3Y-2.0
X7.3Y-2.2
X7.3Y-2.3
X7.3Y-2.4
X7.3Y-2.5
X7.3Y-2.7
X7.3Y-2.8
X7.3Y-2.9
X7.3Y-3.0
X7.3Y-3.2
X7.3Y-3.3
X7.3Y-3.4
X7.3Y-3.5
X7.3Y-3.7
X7.3Y-3.8
X7.3Y-3.9
X7.3Y-4.0
X7.3Y-4.2
X7.3Y-4.3
X7.3Y-4.4
X7.3Y-4.5
X7.3Y-4.7
X7.3Y-4.8
X7.3Y-4.9
X7.3Y-5.0
X7.3Y-5.2
X7.3Y-5.3
X7.3Y-5.4
X7.3Y-5.5
X8.3Y-1.8
X8.3Y-1.9
X8.3Y-2.3
X8.3Y-2.4
X8.3Y-2.8
X8.3Y-2.9
X8.3Y-3.3
X8.3Y-3.4
X8.3Y-3.8
X8.3Y-3.9
X8.3Y-4.3
X8.3Y-4.4
X8.3Y-4.8
X8.3Y-4.9
X8.3Y-5.3
X8.3Y-5.4
T3
X1.8287Y-3.25
X1.8287Y-3.35
X2.3106Y-3.096
X2.3106Y-3.1747
X2.3106Y-3.2535
X2.3894Y-3.096
X2.3894Y-3.1747
X2.3894Y-3.2535
T4
X1.8Y-2.7
X1.8Y-3.9
X1.9Y-2.7
X1.9Y-3.9
X2.0Y-2.7
X2.0Y-3.9
X2.0Y-5.8
X2.1Y-2.7
X2.1Y-3.9
X2.1Y-5.8
X2.2Y-2.7
X2.2Y-3.9
X2.2Y-5.8
X2.3Y-2.7
X2.3Y-3.9
X2.3Y-5.8
X2.4Y-2.7
X2.4Y-3.9
X2.4Y-5.8
X2.5Y-2.7
X2.5Y-3.9
X2.6Y-2.7
X2.6Y-3.9
X2.7Y-2.7
X2.7Y-3.9
X2.8Y-2.7
X2.8Y-3.9
X2.9Y-2.7
X2.9Y-3.9
X3.0Y-2.7
X3.0Y-3.9
X3.0Y-5.8
X3.1Y-2.7
X3.1Y-3.9
X3.1Y-5.8
X3.2Y-2.7
X3.2Y-3.9
X3.2Y-5.8
X3.3Y-2.7
X3.3Y-3.9
X3.3Y-5.8
X3.4Y-2.7
X3.4Y-3.9
X3.4Y-5.8
X3.5Y-2.7
X3.5Y-3.9
X3.6Y-2.7
X3.6Y-3.9
X3.7Y-2.7
X3.7Y-3.9
X3.8Y-2.7
X3.8Y-3.9
X3.9Y-2.7
X3.9Y-3.9
X4.0Y-2.7
X4.0Y-3.9
X4.0Y-5.8
X4.1Y-2.7
X4.1Y-3.9
X4.1Y-5.8
X4.2Y-5.8
X4.3Y-5.8
X4.4Y-5.8
X5.0Y-5.8
X5.1Y-5.8
X5.2Y-5.8
X5.3Y-5.8
X5.4Y-5.8
X6.0Y-5.8
X6.1Y-5.8
X6.2Y-5.8
X6.3Y-5.8
X6.4Y-5.8
X7.0Y-5.8
X7.1Y-5.8
X7.2Y-5.8
X7.3Y-5.8
X7.4Y-5.8
T5
X1.8Y-3.0
X1.8Y-3.6
X1.9Y-3.0
X1.9Y-3.1
X1.9Y-3.6
X2.0Y-3.0
X2.0Y-3.6
X2.048Y-3.4799
X2.1Y-3.0
X2.1Y-3.6
X2.148Y-3.4799
X2.2Y-3.0
X2.2Y-3.6
X2.248Y-3.4799
X2.3Y-3.0
X2.3Y-3.6
X2.348Y-3.4799
X2.4Y-3.0
X2.4Y-3.6
X2.448Y-3.4799
X2.5Y-3.0
X2.5Y-3.6
X2.6Y-3.0
X2.6Y-3.6
X2.7Y-3.0
X2.7Y-3.6
X2.8Y-3.0
X2.8Y-3.6
X2.9Y-3.0
X2.9Y-3.6
X3.0Y-3.0
X3.0Y-3.6
X3.1Y-3.0
X3.1Y-3.6
X3.2Y-3.0
X3.2Y-3.6
X3.3Y-3.0
X3.3Y-3.6
X3.4Y-3.0
X3.4Y-3.6
X3.5Y-3.0
X3.5Y-3.6
X3.6Y-3.0
X3.6Y-3.1
X3.6Y-3.2
X3.6Y-3.3
X3.6Y-3.4
X3.6Y-3.5
X3.6Y-3.6
X3.7Y-3.0
X3.7Y-3.6
X3.8Y-3.0
X3.8Y-3.6
X3.9Y-3.0
X3.9Y-3.6
X4.0Y-3.0
X4.0Y-3.6
X4.1Y-3.0
X4.1Y-3.6
T6
X1.9245Y-6.1
X2.0622Y-6.1
X2.2Y-6.1
X2.3378Y-6.1
X2.4756Y-6.1
X2.9245Y-6.1
X3.0622Y-6.1
X3.2Y-6.1
X3.3378Y-6.1
X3.4756Y-6.1
X3.9245Y-6.1
X4.0622Y-6.1
X4.2Y-6.1
X4.3378Y-6.1
X4.4756Y-6.1
X4.9245Y-6.1
X5.0622Y-6.1
X5.2Y-6.1
X5.3378Y-6.1
X5.4756Y-6.1
X5.9245Y-6.1
X6.0622Y-6.1
X6.2Y-6.1
X6.3378Y-6.1
X6.4756Y-6.1
X6.9245Y-6.1
X7.0622Y-6.1
X7.2Y-6.1
X7.3378Y-6.1
X7.4756Y-6.1
T7
X1.8Y-1.9
X1.8Y-2.1
T8
X1.7638Y-1.3
T9
X1.7244Y-1.1228
X1.7244Y-1.4772
T10
X3.015Y-1.2091
X3.2Y-1.091
X3.615Y-1.2091
X3.8Y-1.091
X4.215Y-1.2091
X4.4Y-1.091
X4.815Y-1.2012
X5.0Y-1.0831
X5.415Y-1.2012
X5.6Y-1.0831
X6.015Y-1.2012
X6.2Y-1.0831
X6.615Y-1.2012
X6.8Y-1.0831
X7.215Y-1.2012
X7.4Y-1.0831
X7.815Y-1.2012
X8.0Y-1.0831
X8.415Y-1.2012
X8.6Y-1.0831
X9.4909Y-1.415
X9.4909Y-2.015
X9.4909Y-2.615
X9.4909Y-3.215
X9.4909Y-3.815
X9.4909Y-4.415
X9.4909Y-5.015
X9.4909Y-5.615
X9.609Y-1.6
X9.609Y-2.2
X9.609Y-2.8
X9.609Y-3.4
X9.609Y-4.0
X9.609Y-4.6
X9.609Y-5.2
X9.609Y-5.8
T11
X2.0Y-1.3
T12
X3.2Y-1.3272
X3.8Y-1.3272
X4.4Y-1.3272
X5.0Y-1.3193
X5.6Y-1.3193
X6.2Y-1.3193
X6.8Y-1.3193
X7.4Y-1.3193
X8.0Y-1.3193
X8.6Y-1.3193
X9.3728Y-1.6
X9.3728Y-2.2
X9.3728Y-2.8
X9.3728Y-3.4
X9.3728Y-4.0
X9.3728Y-4.6
X9.3728Y-5.2
X9.3728Y-5.8
T1
G00X1.6764Y-5.2153
M15
G01X1.6764Y-5.2547
M16
G05
G00X1.8929Y-5.0382
M15
G01X1.8535Y-5.0382
M16
G05
G00X1.8929Y-5.1366
M15
G01X1.8535Y-5.1366
M16
G05
G00X1.8535Y-5.3335
M15
G01X1.8929Y-5.3335
M16
G05
G00X1.8535Y-5.4319
M15
G01X1.8929Y-5.4319
M16
G05
T0
M30
